<svg width="512" height="512" viewBox="0 0 512 512" fill="none" xmlns="http://www.w3.org/2000/svg">
  <rect width="512" height="512" rx="100" fill="#3B82F6"/>
  <path d="M144.6 161.6L213.2 367.6H173.2L150.4 301.6H95.2L72.4 367.6H32.4L101.4 161.6H144.6ZM123 201.6L102.8 265.6H142.8L123 201.6Z" fill="white"/>
  <path d="M280.3 367.6L238.3 161.6H278.3L303.1 311.6L338.3 161.6H387.9L424.7 311.6L448.7 161.6H488.7L447.5 367.6H396.7L361.5 225.6L326.3 367.6H280.3Z" fill="white"/>
  <path d="M189.9 390.4L171.9 432H157.5L139.5 390.4H154.7L166.5 420.8L178.3 390.4H189.9Z" fill="white"/>
  <path d="M202.3 432V390.4H266.7V403.2H217.5V404.8H261.5V417.6H217.5V419.2H267.9V432H202.3Z" fill="white"/>
  <path d="M292.2 432V390.4H344.2C352.2 390.4 358.6 393.6 363.4 400C368.2 406.4 370.6 414.4 370.6 424C370.6 433.6 368.2 441.6 363.4 448C358.6 454.4 352.2 457.6 344.2 457.6H292.2V444.8H343C347.4 444.8 350.6 443.2 352.6 440C354.6 436.8 355.4 431.2 355.4 424C355.4 416.8 354.6 411.2 352.6 408C350.6 404.8 347.4 403.2 343 403.2H307.4V432H292.2Z" fill="white"/>
</svg> 